<?xml version="1.0" standalone="no"?>
<!DOCTYPE svg PUBLIC "-//W3C//DTD SVG 20010904//EN"
 "http://www.w3.org/TR/2001/REC-SVG-20010904/DTD/svg10.dtd">
<svg version="1.0" xmlns="http://www.w3.org/2000/svg"
 width="812.000000pt" height="812.000000pt" viewBox="0 0 812.000000 812.000000"
 preserveAspectRatio="xMidYMid meet">
<metadata>
Created by potrace 1.14, written by Peter Selinger 2001-2017
</metadata>
<g transform="translate(0.000000,812.000000) scale(0.100000,-0.100000)"
fill="#000000" stroke="none">
<path d="M4082 7993 c-6 -2 -9 -10 -5 -16 4 -6 0 -8 -10 -4 -10 4 -17 1 -17
-5 0 -6 -3 -9 -6 -5 -11 10 -36 -22 -28 -35 5 -8 0 -7 -11 2 -10 8 -16 11 -14
5 7 -12 -27 -46 -36 -37 -3 4 -3 -1 1 -11 4 -11 1 -17 -7 -17 -7 0 -10 -3 -6
-6 3 -3 2 -16 -3 -29 -6 -15 -4 -27 3 -35 9 -10 9 -11 0 -6 -9 5 -13 -1 -13
-18 0 -14 5 -26 12 -26 9 0 9 -3 0 -12 -9 -9 -7 -17 11 -37 12 -13 15 -20 7
-16 -10 6 -9 1 3 -13 11 -11 16 -26 12 -31 -3 -6 -1 -11 6 -11 8 0 8 -4 1 -13
-7 -8 -7 -18 -2 -27 6 -9 2 -23 -11 -42 -11 -15 -17 -32 -14 -38 3 -5 1 -10
-4 -10 -6 0 -11 -9 -11 -20 0 -11 -3 -19 -7 -19 -20 3 -26 -2 -13 -11 13 -8
12 -10 -3 -10 -10 0 -15 -5 -12 -11 4 -5 -2 -18 -14 -28 -11 -10 -18 -21 -14
-25 3 -3 1 -6 -6 -6 -7 0 -10 -4 -7 -8 3 -5 -6 -19 -20 -31 -14 -12 -22 -27
-18 -34 4 -7 4 -9 -1 -5 -4 4 -22 -8 -40 -27 -17 -19 -36 -31 -40 -27 -5 4 -5
2 -1 -5 3 -6 -2 -16 -11 -22 -10 -6 -14 -11 -10 -11 4 0 2 -6 -5 -14 -7 -7
-19 -11 -26 -9 -7 3 -12 0 -10 -7 2 -7 -9 -14 -24 -17 -20 -2 -28 1 -28 11 0
8 -5 16 -10 18 -6 2 -12 13 -13 25 0 12 -5 19 -9 17 -4 -3 -8 2 -8 10 0 9 -5
16 -11 16 -5 0 -7 5 -4 10 3 6 -1 10 -9 10 -9 0 -16 7 -16 15 0 9 -6 12 -17 8
-10 -4 -14 -2 -10 4 4 7 -14 10 -51 10 -32 0 -63 3 -70 7 -11 6 -16 -4 -14
-25 1 -4 -8 -4 -20 -1 -14 3 -19 1 -14 -6 5 -8 2 -10 -8 -6 -11 4 -16 0 -16
-11 0 -9 -3 -14 -7 -12 -5 3 -14 -1 -21 -9 -7 -8 -10 -14 -5 -14 4 0 -2 -7
-13 -16 -10 -8 -14 -13 -7 -9 9 4 9 -1 -1 -19 -11 -21 -12 -51 -4 -123 1 -7 5
-10 9 -8 9 6 21 -24 13 -36 -3 -5 -2 -9 3 -9 15 0 34 -53 22 -61 -6 -4 -8 -12
-5 -18 6 -10 -6 -15 -26 -12 -4 0 -5 -6 -2 -14 4 -8 1 -15 -5 -15 -6 0 -11 5
-11 10 0 6 -9 10 -21 10 -11 0 -17 5 -14 10 3 6 1 10 -5 10 -6 0 -8 5 -4 12 5
7 2 9 -9 5 -11 -4 -14 -2 -10 9 3 9 -1 14 -12 14 -9 0 -13 5 -10 10 3 6 0 10
-7 10 -7 0 -19 9 -26 20 -7 11 -19 20 -28 20 -9 0 -12 5 -8 13 4 6 4 9 -1 5
-4 -4 -15 -2 -23 5 -13 9 -14 9 -8 0 5 -9 -1 -11 -22 -7 -45 9 -112 -34 -112
-71 0 -9 -6 -18 -14 -21 -8 -3 -12 -12 -9 -20 3 -8 -1 -14 -8 -14 -11 0 -11
-3 1 -10 9 -6 10 -10 3 -10 -8 0 -11 -21 -10 -65 1 -36 5 -65 10 -65 4 0 6 -3
6 -7 -3 -20 2 -34 10 -29 11 7 23 -22 15 -35 -3 -5 -2 -9 3 -8 21 4 33 -2 33
-16 0 -9 10 -20 23 -25 12 -5 18 -9 13 -9 -5 -1 0 -9 11 -18 11 -10 19 -26 17
-36 -1 -9 2 -15 7 -11 9 5 13 -9 10 -35 -2 -7 2 -10 8 -6 6 3 11 3 11 -2 0
-13 -14 -28 -27 -29 -30 -2 -34 -5 -27 -16 5 -9 2 -9 -9 1 -14 11 -17 11 -17
0 0 -11 -2 -11 -10 1 -5 8 -10 10 -10 3 0 -6 -9 -9 -20 -6 -11 3 -20 0 -20 -6
0 -6 -5 -11 -11 -11 -5 0 -7 4 -4 10 3 5 -9 2 -27 -8 -18 -9 -35 -20 -36 -25
-2 -4 -8 -5 -13 -1 -5 3 -9 0 -9 -7 0 -7 -3 -9 -7 -6 -3 4 -12 -1 -20 -11 -14
-16 -14 -16 -9 1 3 11 2 16 -4 12 -6 -3 -10 -13 -10 -22 0 -13 -2 -14 -17 -2
-13 11 -15 11 -9 1 6 -9 3 -12 -10 -10 -11 2 -18 -2 -17 -9 2 -7 -4 -10 -12
-7 -9 4 -15 0 -15 -7 0 -11 -3 -11 -10 1 -6 10 -10 11 -10 2 0 -6 -6 -11 -12
-10 -7 2 -12 -2 -11 -9 2 -8 -4 -10 -14 -6 -11 4 -14 3 -9 -5 7 -11 -6 -16
-41 -15 -6 0 -9 -6 -5 -15 4 -11 1 -14 -11 -9 -11 4 -17 1 -17 -8 0 -8 -7 -15
-16 -15 -8 0 -22 -7 -31 -15 -8 -8 -19 -13 -24 -10 -5 4 -9 1 -9 -5 0 -6 -4
-9 -9 -6 -5 3 -11 -1 -15 -9 -3 -8 -15 -15 -27 -15 -14 0 -19 -5 -16 -14 4
-10 0 -13 -14 -11 -15 3 -19 0 -15 -10 3 -8 0 -17 -6 -21 -7 -4 -8 -3 -4 4 4
7 2 12 -4 12 -6 0 -13 -7 -16 -15 -4 -8 -10 -13 -14 -10 -5 3 -20 -6 -33 -19
-14 -14 -28 -22 -31 -19 -3 4 -6 1 -6 -5 0 -7 -6 -12 -14 -12 -7 0 -21 -11
-32 -25 -14 -18 -21 -21 -31 -13 -10 8 -12 7 -7 -5 4 -11 -4 -22 -25 -35 -17
-10 -28 -22 -24 -25 3 -4 -1 -7 -10 -7 -9 0 -17 -4 -17 -10 0 -5 -7 -10 -15
-10 -8 0 -15 -6 -15 -14 0 -14 -36 -32 -52 -28 -4 1 -5 -4 -2 -12 3 -8 -4 -16
-16 -19 -14 -4 -19 -10 -14 -18 4 -8 3 -10 -4 -5 -7 4 -12 2 -12 -5 0 -7 -3
-9 -6 -6 -4 4 -19 -13 -34 -36 -15 -23 -40 -53 -56 -67 -22 -19 -25 -20 -14
-5 13 18 12 18 -5 -1 -11 -11 -26 -30 -33 -40 -7 -10 -10 -13 -6 -5 5 9 3 12
-4 7 -7 -4 -12 -14 -12 -22 0 -7 -9 -19 -20 -26 -11 -7 -20 -20 -20 -28 0 -13
-1 -13 -10 0 -7 12 -10 12 -10 1 0 -7 -11 -22 -25 -33 -14 -11 -23 -24 -19
-29 3 -5 -2 -12 -10 -15 -9 -3 -16 -12 -16 -20 0 -8 -8 -14 -17 -14 -14 0 -15
-2 -4 -9 11 -7 10 -11 -5 -20 -11 -6 -15 -11 -10 -11 5 0 3 -7 -4 -15 -7 -8
-16 -12 -21 -9 -5 3 -6 -3 -2 -12 5 -13 3 -15 -7 -9 -10 6 -12 4 -7 -8 3 -9
-1 -18 -10 -21 -9 -4 -13 -10 -9 -13 4 -4 -4 -13 -16 -20 -13 -7 -17 -12 -10
-13 7 0 -1 -13 -17 -29 -16 -16 -27 -32 -24 -35 4 -3 -2 -13 -13 -22 -10 -8
-13 -12 -6 -9 11 6 11 3 1 -13 -7 -12 -16 -19 -20 -16 -5 2 -6 -4 -4 -16 2
-11 -1 -19 -8 -17 -6 1 -12 -4 -13 -10 -1 -7 -2 -18 -3 -24 0 -5 -6 -7 -13 -3
-6 4 -8 3 -4 -4 3 -6 -2 -16 -11 -22 -17 -11 -17 -11 -1 -6 15 5 16 3 5 -14
-6 -11 -14 -20 -17 -20 -3 0 -6 -9 -7 -21 -1 -12 -10 -28 -20 -36 -10 -8 -12
-12 -6 -8 9 4 11 1 7 -9 -3 -9 -10 -13 -16 -10 -5 3 -8 -2 -6 -12 2 -11 -2
-18 -8 -17 -7 1 -10 -6 -7 -17 3 -11 0 -20 -6 -20 -6 0 -11 -7 -11 -16 0 -8
-5 -12 -11 -9 -6 4 -10 1 -8 -6 4 -35 -2 -60 -13 -53 -8 5 -9 0 -6 -14 4 -12
3 -20 -2 -17 -4 3 -11 -11 -14 -30 -4 -19 -12 -35 -19 -35 -7 0 -6 -4 3 -10 8
-5 11 -10 5 -10 -17 0 -33 -46 -22 -65 5 -10 6 -15 1 -12 -5 3 -14 -6 -21 -19
-8 -17 -8 -22 0 -17 6 4 1 -7 -10 -23 -15 -21 -19 -35 -13 -45 7 -10 3 -19
-13 -32 -12 -10 -16 -16 -9 -12 14 7 17 -11 2 -20 -6 -4 -8 -11 -5 -16 4 -5 2
-9 -3 -9 -5 0 -8 -12 -7 -27 1 -16 -3 -34 -9 -42 -9 -12 -8 -13 4 -6 13 8 13
7 0 -10 -8 -10 -14 -20 -12 -22 1 -1 1 -5 1 -8 -1 -3 -2 -17 -3 -32 -1 -16 -4
-32 -7 -38 -3 -5 -7 -30 -8 -55 -1 -24 -7 -48 -14 -52 -9 -6 -8 -8 2 -8 11 0
11 -3 0 -17 -12 -14 -12 -15 -1 -9 11 7 12 4 4 -10 -5 -11 -10 -46 -11 -79 -1
-33 -8 -66 -14 -74 -10 -12 -9 -13 2 -6 11 6 13 4 8 -8 -4 -10 -1 -17 6 -17 7
0 4 -5 -7 -11 -15 -9 -16 -13 -5 -20 12 -8 12 -10 0 -18 -9 -6 -10 -11 -2 -15
8 -5 8 -13 0 -27 -6 -11 -8 -27 -5 -35 3 -8 0 -14 -7 -15 -7 0 -3 -4 8 -9 11
-5 14 -9 8 -9 -7 -1 -13 -10 -13 -22 0 -11 4 -18 8 -15 5 3 9 -1 9 -9 0 -8 -4
-12 -8 -10 -8 6 -7 -15 3 -30 3 -5 6 -46 7 -90 1 -44 3 -89 5 -100 2 -11 -1
-26 -7 -33 -7 -9 -6 -11 6 -6 17 6 18 -11 3 -35 -6 -9 -5 -12 1 -8 11 7 24
-38 15 -48 -9 -9 -9 -45 -1 -39 4 2 10 0 14 -6 3 -5 0 -10 -7 -10 -8 0 -9 -3
-2 -8 5 -4 10 -24 10 -45 -1 -25 3 -37 13 -37 11 0 11 -3 1 -15 -7 -8 -9 -15
-4 -15 5 0 10 -15 12 -32 4 -60 6 -68 16 -68 5 0 6 -3 3 -7 -4 -3 0 -14 9 -24
11 -12 12 -19 4 -24 -8 -5 -6 -14 5 -31 9 -14 13 -29 10 -34 -3 -6 -1 -10 6
-10 7 0 9 -3 6 -7 -4 -3 1 -15 10 -26 10 -11 12 -17 6 -13 -7 4 -13 3 -13 -2
0 -6 8 -13 17 -16 15 -6 15 -8 3 -16 -10 -6 -11 -10 -3 -10 7 0 10 -6 7 -13
-3 -8 2 -19 10 -26 8 -6 12 -21 9 -34 -4 -18 -3 -19 6 -7 9 12 11 10 11 -13 0
-20 4 -26 12 -21 9 5 9 3 -1 -9 -11 -14 -11 -18 3 -23 9 -3 13 -10 10 -15 -3
-5 0 -9 6 -9 6 0 9 -4 6 -8 -3 -5 4 -25 15 -46 11 -20 16 -42 13 -48 -4 -7 -3
-8 4 -4 7 4 12 1 12 -9 0 -8 7 -18 15 -21 8 -4 15 -10 15 -16 0 -5 -4 -7 -10
-3 -10 6 6 -25 34 -67 10 -15 14 -33 10 -39 -4 -8 -3 -9 4 -5 7 4 12 1 12 -7
0 -8 7 -17 15 -21 9 -3 12 -12 8 -22 -5 -13 -3 -15 7 -9 10 6 12 3 8 -13 -4
-12 -2 -20 3 -16 5 3 9 0 9 -6 0 -6 5 -8 12 -4 6 4 8 3 5 -3 -4 -5 3 -19 13
-31 11 -12 20 -26 20 -32 0 -5 5 -10 10 -10 6 0 10 -7 10 -15 0 -8 5 -15 10
-15 6 0 10 -6 10 -13 0 -7 9 -23 20 -35 12 -12 18 -22 14 -22 -3 0 -1 -6 5
-13 6 -8 7 -18 3 -22 -4 -5 -2 -6 3 -3 11 5 38 -21 43 -42 4 -19 35 -40 47
-32 5 3 3 -3 -5 -14 -8 -10 -11 -16 -7 -13 10 8 57 -34 57 -50 0 -6 7 -11 16
-11 8 0 12 -5 9 -10 -3 -6 4 -10 17 -10 14 0 19 -3 11 -8 -8 -5 -9 -13 -3 -22
9 -13 10 -13 10 0 1 9 6 5 15 -10 7 -14 17 -25 22 -25 4 0 7 -7 7 -17 -1 -11
4 -14 14 -10 10 3 13 1 8 -6 -4 -7 -2 -12 6 -12 10 0 9 -3 -2 -9 -8 -6 -17 -8
-21 -5 -4 2 -10 0 -14 -6 -9 -15 -27 -12 -20 3 4 6 1 5 -7 -4 -8 -10 -20 -14
-33 -9 -11 4 -26 5 -34 2 -8 -3 -12 -1 -8 5 3 5 0 10 -8 10 -8 0 -12 -4 -9 -9
3 -4 0 -8 -5 -8 -6 0 -11 5 -11 12 0 6 -3 8 -7 5 -3 -4 -17 0 -31 9 -13 9 -21
11 -18 5 11 -17 -5 -13 -27 6 -11 10 -17 13 -14 6 4 -6 3 -14 -3 -18 -5 -3
-10 0 -10 7 0 9 -3 9 -10 -2 -9 -13 -10 -13 -10 0 0 10 -3 11 -8 4 -4 -6 -19
-10 -34 -10 -16 1 -28 -3 -28 -8 0 -5 -3 -6 -7 -3 -3 4 -13 1 -21 -6 -13 -9
-14 -9 -8 0 5 9 2 11 -8 7 -9 -3 -14 -9 -12 -13 5 -8 -69 -5 -83 4 -6 3 -11 1
-11 -5 0 -6 -5 -8 -10 -5 -6 4 -18 1 -26 -6 -8 -6 -24 -12 -37 -13 -12 -1 -21
-8 -19 -15 1 -7 -2 -10 -7 -7 -13 8 -42 -4 -35 -15 3 -5 0 -9 -6 -9 -6 0 -9
-3 -7 -7 6 -10 -19 -34 -27 -26 -3 4 -6 -3 -6 -14 0 -12 -7 -24 -16 -27 -9 -4
-14 -9 -10 -13 3 -3 -2 -15 -11 -26 -13 -15 -14 -19 -3 -13 8 4 7 1 -4 -8 -10
-9 -15 -20 -10 -27 5 -8 2 -11 -8 -7 -11 5 -14 0 -10 -19 3 -18 1 -24 -7 -19
-7 5 -11 -2 -11 -19 0 -14 -7 -28 -15 -31 -8 -4 -13 -10 -10 -14 8 -12 -6 -41
-16 -34 -5 3 -6 -1 -4 -9 3 -7 -1 -27 -10 -43 -8 -16 -15 -24 -15 -19 0 6 -5
2 -11 -8 -6 -10 -8 -21 -5 -24 3 -4 6 -1 6 5 0 7 6 12 13 12 6 -1 2 -9 -11
-20 -13 -10 -23 -21 -22 -24 2 -26 -2 -36 -10 -31 -6 3 -7 -1 -4 -9 3 -9 1
-16 -6 -16 -6 0 -8 -4 -5 -10 3 -5 1 -10 -4 -10 -6 0 -10 -3 -10 -7 3 -20 -2
-34 -10 -28 -6 3 -8 -4 -6 -15 2 -11 0 -20 -6 -20 -5 0 -8 -6 -7 -13 2 -6 -2
-11 -8 -10 -7 1 -10 -6 -7 -17 3 -12 0 -20 -6 -20 -7 0 -10 -4 -6 -9 3 -5 1
-12 -5 -16 -6 -4 -8 -10 -5 -15 3 -4 -2 -10 -10 -14 -8 -3 -12 -12 -9 -21 4
-8 0 -17 -9 -21 -9 -3 -13 -12 -10 -21 5 -12 3 -14 -7 -8 -9 6 -11 4 -6 -4 5
-7 0 -19 -10 -27 -11 -9 -13 -13 -7 -9 9 4 11 1 7 -9 -3 -9 -11 -13 -18 -9 -6
4 -5 -1 3 -11 12 -15 12 -17 0 -14 -8 2 -13 -3 -11 -9 1 -7 -3 -13 -9 -13 -5
0 -7 -4 -4 -10 3 -5 1 -10 -6 -10 -6 0 -9 -8 -6 -20 3 -10 0 -18 -5 -17 -6 1
-13 -4 -16 -12 -3 -9 0 -11 9 -7 8 4 3 -1 -10 -12 -13 -10 -21 -24 -18 -29 4
-6 0 -16 -8 -23 -8 -7 -12 -16 -9 -21 3 -5 1 -9 -5 -9 -6 0 -7 -8 -4 -17 5
-12 2 -15 -10 -10 -12 4 -14 2 -10 -10 5 -12 3 -14 -8 -8 -12 7 -12 6 -1 -7
10 -12 9 -18 -3 -28 -8 -7 -12 -16 -9 -21 3 -5 -2 -12 -10 -15 -9 -3 -14 -10
-11 -14 3 -5 1 -11 -5 -15 -6 -4 -8 -11 -5 -16 4 -5 2 -9 -3 -9 -5 0 -12 -9
-15 -20 -3 -13 -1 -18 6 -13 7 4 7 1 -1 -9 -15 -19 -15 -178 0 -178 6 0 8 -9
5 -20 -3 -11 -1 -20 5 -20 5 0 6 -4 3 -10 -3 -5 -1 -10 4 -10 6 0 10 -3 10 -7
-3 -19 2 -34 9 -29 4 2 14 1 22 -5 11 -6 11 -9 2 -9 -10 0 -10 -3 0 -14 7 -8
16 -12 21 -9 4 2 7 1 6 -4 -1 -4 1 -16 6 -26 6 -14 10 -15 21 -6 11 9 14 9 14
0 0 -7 5 -9 13 -5 9 6 9 4 -1 -8 -11 -14 -10 -16 9 -11 18 5 21 3 15 -12 -5
-15 -4 -16 9 -5 12 10 15 10 15 0 0 -8 8 -10 21 -7 14 4 19 2 16 -7 -6 -16 24
-16 35 -1 5 6 8 5 8 -4 0 -10 3 -11 14 -2 10 8 16 9 21 1 3 -5 13 -10 21 -10
10 0 12 5 8 12 -6 10 -5 10 7 1 16 -13 36 -12 58 1 10 6 12 5 7 -2 -4 -7 -3
-12 3 -12 5 0 13 4 16 10 3 5 11 10 16 10 6 0 7 -5 3 -12 -4 -6 3 -4 15 4 17
12 31 14 52 8 16 -5 27 -5 25 -1 -3 4 4 13 16 20 11 7 17 8 13 2 -3 -6 -1 -11
4 -11 6 0 11 5 11 12 0 6 3 8 6 5 4 -4 20 3 37 15 17 12 27 17 23 10 -5 -8 -2
-10 8 -6 9 3 14 11 13 17 -1 7 6 11 17 9 12 -2 16 1 10 9 -5 9 -2 10 9 6 9 -3
19 -1 23 5 4 7 3 8 -4 4 -7 -4 -12 -2 -12 3 0 10 20 15 41 13 4 -1 5 8 2 19
-4 15 0 22 17 26 14 4 18 8 10 13 -8 5 -5 14 12 30 12 13 17 20 11 16 -9 -5
-11 -2 -7 8 3 9 10 14 14 11 5 -3 7 3 6 12 -2 10 4 24 13 31 14 11 14 11 -1 6
-16 -6 -17 -4 -3 22 7 15 12 31 9 36 -3 4 1 8 8 8 9 0 9 3 -2 10 -8 5 -10 10
-4 10 7 0 11 27 11 75 -1 41 -5 75 -10 75 -5 0 -4 7 3 15 9 10 9 15 1 15 -14
0 -8 43 7 48 7 2 10 7 8 11 -3 4 1 8 9 8 8 0 15 -3 15 -6 0 -3 11 -7 25 -7 16
-1 22 2 18 10 -4 6 0 5 9 -2 9 -8 25 -13 35 -12 42 5 74 0 67 -11 -4 -7 2 -10
17 -8 13 2 30 0 37 -4 6 -5 12 -5 12 -1 0 3 8 0 17 -7 15 -12 16 -12 8 1 -7
12 -6 13 6 3 9 -7 30 -13 47 -15 18 -1 32 -7 32 -13 0 -5 4 -4 9 4 6 8 14 10
22 5 14 -9 34 -14 57 -16 6 -1 12 -4 12 -8 0 -4 6 -7 13 -8 36 -3 68 -9 74
-15 3 -4 15 -7 25 -7 10 0 18 -3 18 -7 0 -5 12 -9 26 -10 15 0 30 -7 35 -15 7
-10 9 -10 9 0 0 9 6 9 23 -3 13 -8 27 -12 30 -8 4 3 7 1 7 -6 0 -7 4 -10 9 -7
13 8 42 -4 36 -14 -3 -5 -1 -11 4 -14 5 -4 13 -1 17 5 5 8 3 9 -6 4 -9 -5 -11
-4 -6 4 6 9 11 9 22 0 8 -6 14 -8 14 -4 0 4 6 2 13 -4 8 -6 17 -8 20 -4 4 3 7
1 7 -5 0 -7 11 -12 25 -12 14 0 25 -5 25 -11 0 -5 4 -7 10 -4 5 3 10 0 10 -7
0 -9 3 -9 10 2 9 13 10 13 10 0 0 -13 1 -13 10 0 9 13 10 13 10 0 0 -13 1 -13
10 0 9 13 10 13 11 0 1 -8 1 -18 1 -21 -1 -3 11 -4 25 -1 20 4 24 2 18 -9 -7
-11 -5 -11 10 1 10 8 16 10 13 5 -4 -6 -3 -17 3 -25 7 -12 9 -12 9 4 0 15 3
16 15 6 8 -7 15 -9 15 -6 0 4 7 1 15 -8 8 -8 24 -13 35 -11 11 2 18 0 15 -6
-6 -9 7 -13 33 -10 6 1 12 -3 12 -8 0 -5 9 -8 19 -6 11 2 22 -3 25 -12 4 -9 9
-13 13 -10 3 4 13 1 21 -6 13 -9 14 -9 8 0 -5 9 -2 11 8 7 9 -3 16 -10 16 -15
0 -6 10 -5 21 2 15 8 19 8 15 0 -4 -6 -1 -11 6 -11 18 0 68 -23 68 -32 0 -3
11 -5 25 -4 13 2 22 0 20 -5 -3 -4 -1 -10 5 -14 5 -3 10 2 11 12 0 13 3 12 10
-7 7 -18 12 -21 18 -11 7 10 9 9 14 -3 4 -9 18 -16 32 -16 14 0 25 -5 25 -11
0 -5 5 -7 10 -4 6 3 10 2 10 -4 0 -5 8 -8 18 -7 9 2 20 -1 23 -6 4 -6 21 -11
40 -13 18 -1 35 -7 37 -14 2 -6 8 -9 13 -5 5 3 9 0 9 -7 0 -10 3 -10 12 -1 15
15 32 16 23 2 -3 -5 1 -10 10 -10 10 0 13 -5 9 -12 -5 -9 -2 -9 9 1 11 8 17 9
17 3 0 -7 7 -9 17 -5 9 4 14 2 10 -3 -3 -5 2 -10 11 -10 9 -1 30 -5 46 -9 23
-6 27 -5 21 5 -5 9 -4 11 4 6 8 -5 9 -12 2 -20 -7 -9 -2 -11 22 -11 18 1 41
-4 52 -12 11 -7 27 -13 37 -13 10 0 18 -6 18 -12 0 -9 4 -8 10 2 5 8 10 10 10
4 0 -15 60 -24 60 -10 0 6 4 5 9 -3 5 -8 14 -10 22 -5 10 6 10 3 -1 -11 -14
-17 -13 -18 3 -8 21 11 70 5 62 -7 -3 -5 6 -7 20 -5 14 1 25 -3 25 -9 0 -6 5
-4 10 4 6 10 10 11 10 3 0 -7 5 -13 11 -13 5 0 7 4 4 10 -3 6 1 7 9 4 9 -3 16
-11 16 -18 0 -6 5 -4 10 4 8 12 10 12 10 1 0 -11 3 -11 17 0 11 10 14 10 9 1
-8 -14 -13 -13 107 -13 65 0 86 -3 80 -12 -5 -9 -3 -9 8 0 18 15 149 14 168
-1 12 -8 13 -8 7 2 -6 10 5 12 48 10 31 -2 56 0 56 5 0 4 5 5 10 2 6 -3 10 -1
10 5 0 6 12 9 28 7 15 -2 33 0 40 6 8 6 12 5 12 -4 0 -12 2 -12 9 0 6 9 11 10
15 2 5 -8 12 -6 23 4 9 9 22 14 29 11 8 -3 14 0 15 7 0 7 4 3 9 -8 l9 -20 0
20 c1 17 3 17 11 5 8 -12 10 -12 11 5 0 11 3 14 6 7 4 -10 8 -10 21 0 12 10
14 10 8 1 -4 -7 -3 -13 2 -13 6 0 13 8 16 17 6 15 8 15 16 3 7 -11 10 -12 10
-2 0 7 5 10 10 7 6 -4 17 -1 25 5 8 6 19 9 25 5 5 -3 10 -2 10 4 0 5 16 8 35
7 19 -2 32 1 29 6 -3 5 -13 7 -21 4 -8 -3 -12 -2 -9 3 3 5 17 9 31 9 15 0 22
-5 18 -12 -4 -7 -1 -6 9 1 8 7 19 9 23 5 5 -4 5 1 2 10 -4 12 -1 16 14 13 10
-2 19 2 20 8 0 7 4 3 9 -8 7 -17 9 -17 9 -2 1 9 4 16 9 16 19 -3 33 2 27 11
-3 5 0 7 8 4 8 -3 18 0 22 6 5 8 13 6 26 -6 19 -17 20 -17 13 1 -5 13 -4 16 4
11 7 -4 12 -3 12 3 0 6 7 8 15 5 10 -4 15 0 16 12 0 12 3 14 6 6 4 -10 8 -10
21 0 12 10 14 10 8 1 -5 -9 -2 -11 8 -7 9 3 13 11 9 18 -4 6 0 6 9 -2 13 -10
18 -10 24 -1 5 8 3 9 -6 4 -9 -6 -11 -4 -6 4 5 7 14 10 22 7 8 -3 14 0 14 7 0
8 4 6 10 -3 8 -12 10 -12 11 5 0 11 3 15 6 8 3 -9 11 -6 26 8 12 11 27 17 34
15 7 -3 13 -1 13 4 0 5 9 7 20 5 13 -2 20 2 20 11 0 12 4 12 20 4 11 -6 20 -7
19 -3 -4 26 1 35 15 24 12 -10 17 -8 26 8 6 12 20 21 32 21 12 0 30 8 41 18
15 12 19 13 13 2 -4 -8 -1 -7 8 4 9 11 22 16 31 12 9 -3 14 -2 12 2 -3 4 1 13
9 20 11 10 14 10 14 0 0 -11 2 -11 9 0 4 7 14 12 22 10 8 -2 13 2 12 9 -2 7 4
10 12 7 8 -4 15 -1 15 5 0 6 5 11 11 11 5 0 7 -6 3 -13 -4 -6 7 1 24 17 17 15
35 25 41 22 6 -4 11 -2 11 5 0 7 3 9 7 6 3 -4 13 2 21 14 12 17 16 18 30 7 12
-10 14 -10 8 -1 -7 12 5 18 28 14 5 -1 6 4 3 12 -3 9 3 13 22 13 16 -1 25 4
23 12 -2 10 2 10 20 1 21 -11 22 -11 10 4 -11 13 -10 15 9 10 14 -4 20 -2 16
4 -4 6 2 13 13 16 13 3 18 1 13 -6 -4 -8 -2 -8 9 0 8 7 19 9 23 5 5 -4 5 -2 1
5 -3 6 -2 14 4 18 5 3 10 -2 11 -12 0 -16 1 -16 9 2 5 11 9 16 10 10 0 -5 7
-1 15 9 8 11 15 14 15 7 0 -7 5 -9 10 -6 6 4 7 12 3 18 -4 7 0 6 10 -2 12 -9
17 -10 17 -2 0 9 5 9 21 1 11 -7 23 -9 27 -6 3 3 -1 6 -9 6 -12 0 -12 2 1 10
9 5 19 5 26 -1 8 -7 14 -6 19 1 3 6 22 9 40 7 22 -3 36 1 39 10 8 19 55 9 80
-18 12 -12 16 -19 10 -15 -7 3 -15 -1 -18 -10 -3 -8 -2 -12 4 -9 6 3 10 1 10
-4 0 -6 -4 -11 -9 -11 -5 0 -8 -11 -6 -25 1 -14 -2 -25 -7 -25 -5 0 -8 -6 -5
-12 2 -7 0 -21 -5 -30 -6 -12 -5 -18 2 -18 8 0 8 -6 0 -20 -8 -14 -8 -20 0
-20 8 0 8 -6 0 -20 -9 -16 -7 -24 5 -36 8 -9 12 -20 9 -26 -4 -6 4 -20 17 -30
13 -11 18 -17 12 -13 -9 4 -11 1 -7 -9 3 -9 12 -16 20 -16 8 0 14 -10 14 -22
0 -17 3 -19 9 -9 7 11 10 9 16 -8 3 -11 12 -21 20 -21 7 0 21 -7 29 -16 9 -8
20 -12 26 -9 6 4 9 1 8 -6 -3 -12 2 -15 37 -18 8 0 15 -9 15 -18 0 -11 3 -14
8 -7 10 14 52 12 52 -3 0 -7 7 -10 16 -6 9 3 20 0 24 -7 5 -8 13 -9 21 -4 18
11 39 14 39 5 0 -9 42 -7 58 3 7 4 12 2 12 -4 0 -7 6 -8 19 0 14 7 22 7 26 0
5 -8 11 -7 21 1 11 9 14 9 14 -1 0 -9 4 -9 13 -3 6 6 22 9 34 8 17 -1 20 2 13
10 -8 9 -4 12 14 10 14 -2 27 3 30 11 3 8 12 11 22 7 13 -5 15 -3 9 7 -5 9 -4
11 4 6 15 -10 53 3 46 15 -4 5 3 9 14 9 12 0 21 6 21 13 0 8 4 7 10 -3 8 -13
10 -12 10 3 0 9 5 17 11 17 5 0 7 6 3 13 -5 7 -1 7 12 -3 10 -8 16 -11 12 -6
-3 4 2 16 13 27 11 11 17 24 14 29 -3 5 0 7 8 4 17 -6 18 26 2 38 -6 5 -6 8 1
8 6 0 11 7 11 15 0 8 -5 15 -10 15 -5 0 -4 7 3 15 10 12 10 15 0 15 -10 0 -10
3 0 15 7 8 8 15 3 15 -5 0 -10 17 -11 37 -2 21 -6 40 -10 43 -4 3 -8 14 -8 25
-1 11 -5 29 -10 39 -6 15 -4 17 7 11 12 -8 12 -6 0 8 -7 9 -11 26 -8 36 3 14
-2 21 -16 25 -20 5 -20 6 -3 25 16 18 16 20 1 28 -9 6 -16 13 -16 16 1 4 1 25
1 48 0 29 -3 38 -12 33 -10 -6 -10 -4 0 8 10 13 10 18 1 24 -8 5 -9 3 -4 -6 5
-9 4 -11 -3 -6 -9 5 -9 13 -2 27 8 14 7 19 -1 19 -7 0 -9 3 -6 7 4 3 1 13 -6
21 -10 13 -9 14 3 7 12 -7 11 -3 -3 18 -9 15 -13 27 -8 27 6 0 8 7 5 15 -4 8
-9 13 -13 10 -4 -2 -8 2 -8 10 0 8 4 12 8 10 10 -7 5 22 -6 32 -4 4 -5 2 0 -6
5 -8 4 -12 -1 -8 -5 3 -9 21 -8 41 1 20 -2 33 -7 30 -5 -3 -9 7 -9 23 1 54 -3
64 -19 58 -11 -3 -10 0 3 10 11 8 14 15 8 15 -7 0 -12 12 -12 26 0 14 -4 23
-9 20 -4 -3 -7 8 -5 25 3 20 -1 32 -12 36 -13 5 -13 7 -2 14 11 7 11 9 -1 9
-8 0 -11 6 -7 16 3 8 2 12 -4 9 -6 -3 -10 1 -10 9 0 9 -6 16 -12 16 -9 0 -8 4
2 10 13 8 12 10 -3 10 -10 0 -15 4 -12 10 3 5 -2 10 -11 10 -14 0 -15 3 -7 11
9 9 6 17 -10 31 -12 11 -16 16 -8 12 9 -5 12 -3 7 4 -4 7 -13 12 -19 12 -7 0
-13 9 -14 20 -2 23 -27 52 -37 42 -4 -3 -4 1 0 11 6 16 -5 22 -29 18 -5 -1 -6
3 -2 9 3 5 1 10 -4 10 -6 0 -10 3 -8 8 1 4 -3 8 -8 10 -6 2 -13 10 -18 17 -4
8 -15 11 -24 8 -11 -4 -14 -3 -9 5 4 8 0 12 -11 12 -11 0 -25 6 -32 12 -11 10
-13 10 -7 1 4 -7 3 -13 -3 -13 -5 0 -11 5 -13 11 -2 6 -16 12 -31 12 -15 0
-27 4 -27 9 0 5 -4 6 -10 3 -5 -3 -10 0 -10 7 0 11 -2 10 -9 0 -7 -11 -9 -10
-14 3 -5 12 -11 14 -25 6 -14 -8 -24 -6 -38 7 -10 9 -35 17 -54 17 -19 0 -41
7 -48 15 -10 13 -11 13 -6 -3 5 -13 2 -16 -10 -11 -9 3 -16 11 -16 18 0 6 -5
4 -10 -4 -9 -13 -10 -13 -10 0 0 13 -1 13 -10 0 -9 -13 -10 -13 -11 0 0 10 -3
8 -9 -5 -8 -19 -9 -19 -9 -1 -1 19 -2 19 -21 1 -17 -16 -20 -16 -15 -3 5 13 2
15 -14 11 -12 -3 -24 -10 -27 -15 -3 -5 -14 -2 -24 7 -14 12 -20 13 -26 4 -5
-8 -3 -10 7 -4 8 5 11 4 6 -1 -5 -5 -12 -9 -15 -9 -4 0 -12 -4 -19 -8 -6 -4
-14 -3 -18 3 -10 16 -25 2 -19 -18 4 -11 3 -13 -3 -5 -9 13 -38 12 -50 -2 -4
-4 -3 -5 4 -1 6 3 14 3 17 -2 3 -5 -9 -8 -27 -7 -18 1 -39 -2 -48 -6 -13 -7
-15 -2 -14 29 3 51 3 52 20 52 8 0 15 4 15 10 0 11 47 60 53 54 2 -2 17 10 33
28 16 17 23 27 15 23 -9 -5 -12 -4 -7 3 4 7 14 12 22 12 8 0 12 5 9 10 -3 6
-1 10 5 10 6 0 8 5 5 10 -3 6 1 10 10 10 9 0 13 4 10 10 -6 9 8 15 29 11 5 -1
3 6 -5 15 -8 10 -9 15 -2 11 6 -4 14 -3 18 3 4 6 12 7 18 3 7 -4 5 2 -3 12 -9
11 -10 16 -2 11 7 -4 12 -2 12 4 0 6 5 8 12 4 6 -4 8 -3 4 4 -3 6 0 14 8 19
14 7 16 12 16 31 0 4 5 0 10 -8 8 -12 10 -9 10 13 0 19 4 26 12 21 8 -5 9 -2
5 9 -3 9 -1 19 5 23 7 5 8 2 3 -7 -5 -10 -5 -11 3 -4 6 6 12 17 14 25 5 24 27
42 40 34 10 -6 10 -5 1 7 -10 12 -9 18 7 31 10 9 22 13 26 10 5 -4 3 0 -4 9
-10 14 -10 18 3 23 8 3 15 13 15 21 0 10 5 13 12 9 7 -5 8 -3 4 5 -5 7 -1 17
8 24 9 7 18 22 19 35 0 12 5 22 10 22 5 0 15 6 22 14 11 10 11 16 2 25 -9 9
-8 11 6 6 13 -6 17 -2 17 15 0 16 4 20 15 16 13 -5 14 -2 4 15 -7 13 -7 19 -1
15 12 -7 21 5 27 36 3 13 12 29 22 36 13 9 14 12 2 12 -12 0 -12 2 1 10 8 5
11 10 7 10 -4 0 -2 6 5 14 7 8 17 11 22 8 5 -3 6 -1 3 5 -4 6 0 19 8 29 8 10
14 24 15 29 0 6 -5 3 -10 -5 -7 -10 -10 -11 -10 -2 0 7 6 15 14 18 8 3 17 12
20 19 3 10 0 12 -12 8 -10 -4 -7 3 9 18 14 13 24 29 22 36 -2 6 1 14 6 18 6 3
11 15 11 26 0 10 6 19 13 19 9 0 8 3 -2 9 -9 6 -10 10 -2 12 11 4 19 32 24 82
1 9 5 17 10 17 4 0 6 4 2 10 -3 5 3 18 15 30 11 11 15 20 10 20 -7 0 -7 6 0
20 6 11 7 20 3 20 -4 0 1 7 11 15 17 13 18 15 3 15 -9 0 -17 5 -17 11 0 5 4 8
9 5 14 -9 22 36 9 52 -9 10 -8 12 3 10 9 -2 14 6 13 24 0 15 3 25 7 22 4 -2 6
8 5 23 -2 16 1 31 7 34 5 4 10 39 11 78 1 39 4 71 8 71 4 0 7 8 7 18 3 61 6
78 15 84 7 5 7 8 -1 8 -7 0 -13 4 -13 10 0 5 8 6 18 3 14 -6 15 -4 5 9 -7 8
-10 17 -7 21 9 9 11 191 1 204 -4 6 -4 14 1 16 8 6 7 110 -2 134 -3 7 -2 13 2
13 4 0 7 11 7 25 0 14 -3 25 -6 25 -10 0 -5 44 6 52 6 5 3 8 -7 8 -13 0 -16 7
-13 30 3 19 0 30 -8 30 -7 0 -6 4 3 10 8 5 10 10 3 10 -13 0 -12 18 1 39 7 10
5 13 -5 9 -11 -4 -14 7 -13 53 0 33 -2 59 -6 59 -6 0 -12 35 -14 88 0 17 -5
32 -9 32 -5 0 -6 4 -2 9 3 5 1 12 -3 15 -5 3 -7 17 -4 31 2 15 0 25 -7 25 -6
0 -11 14 -11 30 0 17 -5 30 -11 30 -6 0 -9 9 -6 20 3 10 -2 25 -9 31 -8 7 -14
19 -13 28 3 30 -1 42 -11 36 -5 -3 -8 0 -5 7 7 18 -30 120 -40 110 -4 -4 -2 4
5 17 6 13 8 21 3 18 -5 -3 -14 3 -21 14 -10 15 -10 19 0 19 7 0 5 5 -5 11 -9
6 -15 14 -12 19 3 5 1 11 -5 15 -6 4 -8 11 -5 16 4 5 1 9 -5 9 -6 0 -8 5 -4
12 5 7 2 9 -9 5 -11 -4 -15 -1 -12 13 2 11 -4 24 -13 30 -15 8 -15 9 3 10 16
0 17 2 5 9 -8 6 -19 7 -25 4 -5 -4 -7 -3 -3 2 4 4 2 15 -5 23 -8 11 -8 14 0 9
6 -4 15 -2 19 4 4 8 3 9 -4 5 -11 -7 -38 32 -34 48 2 5 -4 6 -11 3 -11 -4 -13
0 -10 14 3 10 0 19 -6 19 -6 0 -10 3 -10 8 4 22 -2 42 -11 37 -5 -3 -10 1 -10
9 0 9 -5 16 -11 16 -5 0 -8 4 -5 8 7 11 -29 64 -37 55 -4 -3 -7 4 -7 16 0 15
-4 20 -12 15 -8 -5 -7 0 2 11 8 10 11 16 5 13 -5 -3 -19 4 -30 15 -12 11 -14
17 -5 13 9 -5 8 -2 -2 7 -10 8 -18 18 -18 22 0 4 -10 16 -22 26 -11 11 -18 19
-14 19 4 0 1 7 -6 15 -33 36 -39 46 -33 55 4 6 -1 13 -9 16 -9 3 -16 15 -16
26 0 10 -4 17 -9 13 -5 -3 -16 4 -24 15 -7 11 -17 17 -20 13 -4 -3 -7 4 -7 16
0 12 -4 19 -10 16 -5 -3 -10 -2 -10 3 0 5 -10 14 -22 21 -13 6 -15 9 -6 7 12
-3 15 -1 11 9 -3 8 -8 13 -12 11 -12 -8 -32 10 -34 31 0 12 -6 19 -14 16 -14
-6 -65 46 -57 58 3 5 0 9 -6 9 -15 0 -60 46 -53 54 4 3 -1 6 -10 6 -9 0 -19 5
-23 12 -5 7 -3 8 6 3 9 -5 11 -4 6 3 -4 7 -14 12 -22 12 -8 0 -17 7 -21 16 -5
13 -7 13 -14 2 -7 -10 -9 -9 -9 5 0 10 -4 16 -9 12 -6 -3 -8 4 -6 16 4 17 2
19 -10 9 -12 -10 -15 -9 -15 4 0 10 -4 14 -10 11 -5 -3 -10 0 -10 8 0 8 -8 21
-17 28 -16 12 -17 12 -8 -1 6 -10 4 -9 -6 2 -9 9 -20 14 -24 10 -5 -4 -5 1 -2
11 4 10 3 16 -3 12 -11 -7 -32 29 -22 40 4 5 1 5 -6 1 -7 -4 -9 -13 -5 -19 4
-7 0 -6 -10 2 -9 7 -15 17 -12 21 3 4 -3 7 -13 6 -12 -1 -16 5 -14 19 2 17 1
17 -8 5 -7 -10 -12 -11 -17 -4 -5 6 -16 13 -26 17 -10 4 -16 11 -12 16 3 6 -4
8 -15 6 -11 -2 -18 0 -15 6 4 5 0 9 -7 9 -7 0 -22 13 -33 29 -11 17 -21 28
-24 26 -2 -3 4 -15 15 -27 11 -14 5 -11 -16 7 -19 17 -38 34 -41 38 -3 5 -9 8
-13 8 -20 -3 -26 1 -26 14 0 9 -6 12 -17 8 -10 -4 -14 -2 -9 5 4 7 -1 10 -14
7 -11 -2 -20 0 -20 4 0 9 -38 24 -53 22 -4 -1 -6 4 -5 11 2 7 -4 12 -12 13 -8
1 -14 7 -12 14 1 7 -2 10 -8 6 -5 -3 -10 -2 -10 3 0 6 -7 13 -16 16 -15 6 -15
4 -3 -11 12 -16 12 -16 -8 0 -12 10 -27 19 -35 21 -7 1 -20 6 -28 11 -24 15
-52 17 -44 3 4 -7 -5 -2 -19 11 -15 14 -25 27 -22 29 3 3 0 11 -6 19 -9 10 -8
13 5 13 10 0 14 5 11 11 -4 6 1 17 11 25 18 13 18 14 -1 8 -20 -6 -20 -5 -1
10 11 9 16 16 10 16 -5 0 -1 5 8 11 10 5 15 16 12 24 -4 8 -1 15 5 15 6 0 11
7 11 15 0 8 5 15 10 15 6 0 9 6 8 13 -2 6 2 11 8 10 6 -1 11 8 10 20 0 12 4
21 11 20 7 -2 10 4 7 12 -4 8 1 17 10 21 9 3 13 10 10 15 -3 6 0 16 6 24 7 8
10 24 7 35 -3 11 -2 20 2 20 14 0 6 40 -9 40 -11 1 -11 3 4 12 18 10 18 11 -5
30 -13 11 -17 16 -9 12 8 -4 -5 13 -29 37 -25 24 -51 42 -60 41 -12 -3 -13 -1
-3 11 11 12 10 15 -5 13 -10 0 -17 4 -16 11 2 7 -6 10 -20 6 -12 -2 -30 -5
-39 -5 -10 1 -21 -4 -24 -10 -5 -7 -2 -8 6 -3 9 5 11 4 6 -3 -5 -9 -13 -9 -26
-2 -13 7 -21 7 -26 -2 -5 -7 -2 -9 7 -4 8 4 5 0 -5 -8 -14 -11 -22 -13 -27 -5
-5 8 -8 8 -13 0 -15 -23 -23 -9 -25 46 -1 31 -4 60 -7 64 -2 4 2 10 8 12 10 4
10 6 1 6 -7 1 -10 8 -6 16 3 9 -3 23 -13 31 -11 9 -13 12 -5 8 20 -10 3 17
-21 34 -10 7 -18 20 -18 28 0 8 -4 12 -10 9 -5 -3 -10 1 -10 10 0 9 -4 13 -10
10 -5 -3 -10 -1 -10 5 0 6 -4 8 -10 5 -5 -3 -10 0 -10 7 0 10 -3 9 -11 -2 -9
-12 -10 -11 -6 8 4 15 1 20 -6 15 -7 -4 -32 -7 -57 -8 -25 0 -51 -4 -58 -8 -8
-5 -20 -3 -29 5 -11 8 -14 9 -10 1 5 -7 -1 -21 -12 -32 -11 -11 -17 -22 -14
-25 4 -3 1 -6 -6 -6 -7 0 -10 -4 -7 -9 3 -5 -1 -14 -9 -21 -10 -8 -12 -17 -6
-28 7 -12 3 -21 -11 -34 -12 -10 -23 -18 -25 -18 -10 0 -31 28 -26 34 4 3 1 6
-6 6 -17 0 -41 25 -41 44 0 8 -9 17 -20 21 -11 3 -19 9 -19 13 3 20 -3 31 -21
37 -11 4 -18 10 -15 15 3 4 -1 10 -8 13 -7 3 -23 25 -36 51 -13 25 -28 43 -33
40 -6 -4 -4 4 2 17 7 13 9 21 5 16 -12 -10 -44 43 -37 61 3 10 1 13 -6 8 -8
-5 -12 0 -12 13 0 10 -5 21 -10 23 -6 2 -11 17 -13 33 -1 17 -6 33 -11 37 -6
4 -4 13 3 22 11 13 11 16 1 16 -9 0 -7 7 6 22 10 12 13 18 7 14 -7 -4 -13 -2
-13 3 0 6 7 11 15 11 8 0 15 8 15 18 0 10 6 24 13 31 10 11 9 14 -1 18 -10 4
-10 8 0 21 10 12 10 16 0 19 -6 3 -9 10 -5 16 10 17 11 47 1 47 -4 0 -8 9 -8
21 0 11 -4 17 -10 14 -5 -3 -10 1 -10 9 0 9 -5 16 -11 16 -5 0 -7 5 -4 10 3 6
-1 10 -10 10 -9 0 -13 5 -10 10 3 6 -3 10 -14 10 -11 0 -25 9 -31 21 -7 12
-20 20 -33 19 -12 -1 -26 -1 -32 0 -25 6 -41 4 -47 -5 -5 -6 -8 -5 -8 3 0 13
-6 14 -28 5z m-2152 -6138 c0 -7 -30 -13 -34 -7 -3 4 4 9 15 9 10 1 19 0 19
-2z"/>
<path d="M2165 6040 c-3 -6 1 -7 9 -4 18 7 21 14 7 14 -6 0 -13 -4 -16 -10z"/>
<path d="M6096 5775 c4 -8 8 -15 10 -15 2 0 4 7 4 15 0 8 -4 15 -10 15 -5 0
-7 -7 -4 -15z"/>
<path d="M6133 1795 c0 -8 4 -12 9 -9 5 3 6 10 3 15 -9 13 -12 11 -12 -6z"/>
<path d="M6250 689 c0 -5 5 -7 10 -4 6 3 10 8 10 11 0 2 -4 4 -10 4 -5 0 -10
-5 -10 -11z"/>
<path d="M6953 205 c0 -8 4 -12 9 -9 5 3 6 10 3 15 -9 13 -12 11 -12 -6z"/>
</g>
</svg>
